<svg width="17" height="17" viewBox="0 0 17 17" fill="none" xmlns="http://www.w3.org/2000/svg">
<path fill-rule="evenodd" clip-rule="evenodd" d="M8.14388 5.16667C9.98388 5.16667 11.4772 6.66 11.4772 8.5C11.4772 8.93333 11.3905 9.34 11.2372 9.72L13.1839 11.6667C14.1905 10.8267 14.9839 9.74 15.4705 8.5C14.3172 5.57333 11.4705 3.5 8.13721 3.5C7.20388 3.5 6.31055 3.66667 5.48388 3.96667L6.92388 5.40667C7.30388 5.25333 7.71055 5.16667 8.14388 5.16667ZM1.47721 3.34667L2.99721 4.86667L3.30388 5.17333C2.19721 6.03333 1.33055 7.18 0.810547 8.5C1.96388 11.4267 4.81055 13.5 8.14388 13.5C9.17721 13.5 10.1639 13.3 11.0639 12.94L11.3439 13.22L13.2972 15.1667L14.1439 14.32L2.32388 2.5L1.47721 3.34667ZM5.16388 7.03333L6.19721 8.06667C6.16388 8.20667 6.14388 8.35333 6.14388 8.5C6.14388 9.60667 7.03721 10.5 8.14388 10.5C8.29055 10.5 8.43721 10.48 8.57721 10.4467L9.61055 11.48C9.16388 11.7 8.67055 11.8333 8.14388 11.8333C6.30388 11.8333 4.81055 10.34 4.81055 8.5C4.81055 7.97333 4.94388 7.48 5.16388 7.03333ZM8.03721 6.51333L10.1372 8.61333L10.1505 8.50667C10.1505 7.4 9.25721 6.50667 8.15055 6.50667L8.03721 6.51333Z" fill="#6A737D"/>
</svg>
