<svg width="25" height="24" viewBox="0 0 25 24" fill="none" xmlns="http://www.w3.org/2000/svg">
<path d="M21.34 4.61012C20.8292 4.09912 20.2228 3.69376 19.5554 3.4172C18.8879 3.14064 18.1725 2.99829 17.45 2.99829C16.7275 2.99829 16.0121 3.14064 15.3446 3.4172C14.6772 3.69376 14.0708 4.09912 13.56 4.61012L12.5 5.67012L11.44 4.61012C10.4083 3.57842 9.00903 2.99883 7.55 2.99883C6.09096 2.99883 4.69169 3.57842 3.66 4.61012C2.6283 5.64181 2.04871 7.04108 2.04871 8.50012C2.04871 9.95915 2.6283 11.3584 3.66 12.3901L4.72 13.4501L12.5 21.2301L20.28 13.4501L21.34 12.3901C21.851 11.8794 22.2563 11.2729 22.5329 10.6055C22.8095 9.93801 22.9518 9.2226 22.9518 8.50012C22.9518 7.77763 22.8095 7.06222 22.5329 6.39476C22.2563 5.7273 21.851 5.12087 21.34 4.61012Z" stroke="#676767" stroke-width="1.5" stroke-linecap="round" stroke-linejoin="round"/>
</svg>
