<svg width="17" height="17" viewBox="0 0 17 17" fill="none" xmlns="http://www.w3.org/2000/svg">
<path fill-rule="evenodd" clip-rule="evenodd" d="M8.14388 3.5C4.81055 3.5 1.96388 5.57333 0.810547 8.5C1.96388 11.4267 4.81055 13.5 8.14388 13.5C11.4772 13.5 14.3239 11.4267 15.4772 8.5C14.3239 5.57333 11.4772 3.5 8.14388 3.5ZM8.14388 11.8333C6.30388 11.8333 4.81055 10.34 4.81055 8.5C4.81055 6.66 6.30388 5.16667 8.14388 5.16667C9.98388 5.16667 11.4772 6.66 11.4772 8.5C11.4772 10.34 9.98388 11.8333 8.14388 11.8333ZM8.14388 6.5C7.03721 6.5 6.14388 7.39333 6.14388 8.5C6.14388 9.60667 7.03721 10.5 8.14388 10.5C9.25055 10.5 10.1439 9.60667 10.1439 8.5C10.1439 7.39333 9.25055 6.5 8.14388 6.5Z" fill="#6A737D"/>
</svg>
