<svg width="25" height="25" viewBox="0 0 25 25" fill="none" xmlns="http://www.w3.org/2000/svg">
<path d="M12.8262 13.2046C13.3785 13.2046 13.8262 12.7569 13.8262 12.2046C13.8262 11.6523 13.3785 11.2046 12.8262 11.2046C12.2739 11.2046 11.8262 11.6523 11.8262 12.2046C11.8262 12.7569 12.2739 13.2046 12.8262 13.2046Z" stroke="#F68235" stroke-width="2" stroke-linecap="round" stroke-linejoin="round"/>
<path d="M19.8262 13.2046C20.3785 13.2046 20.8262 12.7569 20.8262 12.2046C20.8262 11.6523 20.3785 11.2046 19.8262 11.2046C19.2739 11.2046 18.8262 11.6523 18.8262 12.2046C18.8262 12.7569 19.2739 13.2046 19.8262 13.2046Z" stroke="#F68235" stroke-width="2" stroke-linecap="round" stroke-linejoin="round"/>
<path d="M5.82617 13.2046C6.37846 13.2046 6.82617 12.7569 6.82617 12.2046C6.82617 11.6523 6.37846 11.2046 5.82617 11.2046C5.27389 11.2046 4.82617 11.6523 4.82617 12.2046C4.82617 12.7569 5.27389 13.2046 5.82617 13.2046Z" stroke="#F68235" stroke-width="2" stroke-linecap="round" stroke-linejoin="round"/>
</svg>
